<?xml version="1.0" encoding="UTF-8" standalone="no"?>
<svg
   xmlns:dc="http://purl.org/dc/elements/1.1/"
   xmlns:cc="http://creativecommons.org/ns#"
   xmlns:rdf="http://www.w3.org/1999/02/22-rdf-syntax-ns#"
   xmlns:svg="http://www.w3.org/2000/svg"
   xmlns="http://www.w3.org/2000/svg"
   xmlns:sodipodi="http://sodipodi.sourceforge.net/DTD/sodipodi-0.dtd"
   xmlns:inkscape="http://www.inkscape.org/namespaces/inkscape"
   sodipodi:docname="penguin.svg"
   inkscape:version="1.0 (4035a4f, 2020-05-01)"
   id="svg937"
   version="1.1"
   viewBox="0 0 9.0311499 9.0350952"
   height="9.0350952mm"
   width="9.0311499mm">
  <defs
     id="defs931" />
  <sodipodi:namedview
     inkscape:window-maximized="0"
     inkscape:window-y="23"
     inkscape:window-x="0"
     inkscape:window-height="710"
     inkscape:window-width="1252"
     showgrid="false"
     inkscape:document-rotation="0"
     inkscape:current-layer="layer1"
     inkscape:document-units="mm"
     inkscape:cy="42.575675"
     inkscape:cx="33.335542"
     inkscape:zoom="5.1474009"
     inkscape:pageshadow="2"
     inkscape:pageopacity="0.0"
     borderopacity="1.0"
     bordercolor="#666666"
     pagecolor="#ffffff"
     id="base" />
  <metadata
     id="metadata934">
    <rdf:RDF>
      <cc:Work
         rdf:about="">
        <dc:format>image/svg+xml</dc:format>
        <dc:type
           rdf:resource="http://purl.org/dc/dcmitype/StillImage" />
        <dc:title></dc:title>
      </cc:Work>
    </rdf:RDF>
  </metadata>
  <g
     transform="translate(-110.90589,-123.47526)"
     id="layer1"
     inkscape:groupmode="layer"
     inkscape:label="Layer 1">
    <g
       transform="translate(8.6354261,0.30840807)"
       id="g955">
      <path
         id="path969"
         d="m 102.27047,130.75859 c 0,-0.79066 0.005,-1.43757 0.0101,-1.43757 0.006,0 0.0435,0.0196 0.0842,0.0435 0.24674,0.1446 0.72885,0.11548 1.03152,-0.0623 0.0704,-0.0413 0.0838,-0.0354 0.0986,0.0438 0.0955,0.50921 0.46791,1.20336 0.85744,1.59834 0.12126,0.12295 0.12126,0.12295 -0.0739,0.12295 -0.29703,0 -0.39401,0.0695 -0.39401,0.28222 0,0.21154 0.0971,0.28186 0.39046,0.28292 0.17488,6.3e-4 0.18692,0.003 0.13783,0.0241 -0.21596,0.0941 -0.21596,0.42075 0,0.51482 0.0455,0.0198 -0.11562,0.0235 -1.04423,0.0241 -1.09802,6.9e-4 -1.09802,6.9e-4 -1.09802,-1.43688 z m 2.84868,1.42581 c 0.70367,-0.0276 1.25113,-0.12553 1.56707,-0.28023 0.0998,-0.0489 0.0998,-0.0489 0.19961,0 0.31594,0.1547 0.8634,0.2526 1.56707,0.28023 0.0679,0.003 -0.68218,0.005 -1.66687,0.005 -0.9847,0 -1.73479,-0.002 -1.66688,-0.005 z m 4.04018,-0.0131 c 0.11629,-0.0506 0.18398,-0.18619 0.15914,-0.31863 -0.0141,-0.0749 -0.0869,-0.16472 -0.15914,-0.19619 -0.0491,-0.0214 -0.037,-0.0235 0.13784,-0.0241 0.2934,-0.001 0.39045,-0.0714 0.39045,-0.28292 0,-0.21275 -0.097,-0.28222 -0.39401,-0.28222 -0.19519,0 -0.19519,0 -0.0739,-0.12295 0.38953,-0.39498 0.76191,-1.08913 0.85744,-1.59834 0.0149,-0.0792 0.0282,-0.0852 0.0986,-0.0438 0.30267,0.17778 0.78478,0.2069 1.03152,0.0623 0.0408,-0.0239 0.0787,-0.0435 0.0842,-0.0435 0.006,0 0.0101,0.64691 0.0101,1.43757 0,1.43757 0,1.43757 -1.09802,1.43688 -0.92861,-5.8e-4 -1.08972,-0.004 -1.04423,-0.0241 z m -2.58497,-1.40535 c -1.22638,-0.072 -2.03454,-0.786 -2.18463,-1.93005 -0.0863,-0.65816 0.003,-1.30296 0.24187,-1.74585 0.0693,-0.12846 0.0693,-0.12846 0.0457,-0.232 -0.24173,-1.06242 0.003,-1.98088 0.60215,-2.25803 0.48087,-0.22251 0.88016,-0.16383 1.30338,0.19156 0.19345,0.16243 0.20806,0.16116 0.47827,-0.0416 0.30486,-0.22875 0.40997,-0.27149 0.65976,-0.2683 1.00129,0.0128 1.45216,0.87128 1.19371,2.27282 -0.039,0.21167 -0.039,0.21167 0.0352,0.35278 0.30961,0.5883 0.3534,1.59172 0.0993,2.27542 -0.3025,0.8139 -1.04749,1.3273 -1.99852,1.37726 -0.0922,0.005 -0.19138,0.0108 -0.22049,0.0133 -0.0291,0.002 -0.1442,-8.1e-4 -0.25576,-0.007 z m 0.33367,-3.13022 c 0.2569,-0.11958 0.50825,-0.37273 0.60689,-0.61124 0.027,-0.0652 0.027,-0.0652 -0.0643,-0.0945 -0.13545,-0.0435 -0.421,-0.17594 -0.55069,-0.25531 -0.11386,-0.0697 -0.11386,-0.0697 -0.22773,0 -0.12969,0.0794 -0.41524,0.21176 -0.55069,0.25531 -0.0913,0.0294 -0.0913,0.0294 -0.0643,0.0945 0.0986,0.23851 0.34999,0.49166 0.60689,0.61124 0.11797,0.0549 0.12604,0.0549 0.24401,0 z m -0.66476,-1.14672 c 0.19785,-0.13714 0.22393,-0.41011 0.0553,-0.57876 -0.27823,-0.27822 -0.7473,0.0114 -0.62393,0.38519 0.0757,0.22942 0.37161,0.33015 0.56865,0.19357 z m 1.45131,0.0298 c 0.20824,-0.0946 0.28579,-0.36836 0.15699,-0.55421 -0.13642,-0.19685 -0.40984,-0.22253 -0.57807,-0.0543 -0.29434,0.29435 0.0422,0.78065 0.42108,0.60852 z m -5.42394,-0.33311 c -1.7e-4,-3.02066 -1.7e-4,-3.02066 2.12091,-3.01876 1.848,0.002 2.10018,0.005 1.95882,0.0255 -1.52829,0.22289 -2.56085,1.3427 -2.65023,2.87415 -0.0125,0.21327 -0.0255,0.29708 -0.0673,0.43215 -0.39452,1.2742 -0.44107,1.37405 -0.98278,2.10785 -0.20266,0.27452 -0.2873,0.40227 -0.33644,0.50783 -0.0428,0.0919 -0.0428,0.0919 -0.043,-2.92877 z m 8.99848,2.95126 c -0.0278,-0.0769 -0.14907,-0.26269 -0.3404,-0.5215 -0.54842,-0.7419 -0.59407,-0.83953 -0.98948,-2.11667 -0.0418,-0.13507 -0.0549,-0.21888 -0.0673,-0.43215 -0.0894,-1.53145 -1.12194,-2.65126 -2.65022,-2.87415 -0.14137,-0.0206 0.11081,-0.0239 1.95881,-0.0255 2.12108,-0.002 2.12108,-0.002 2.12108,3.01435 0,1.65894 -0.002,3.01625 -0.005,3.01625 -0.003,0 -0.0151,-0.0273 -0.0272,-0.0606 z"
         style="fill:#fefefe;stroke-width:0.0176389" />
      <path
         id="path967"
         d="m 104.85929,132.18338 c 0.0317,-0.004 0.0793,-0.004 0.10584,1.8e-4 0.0265,0.004 5.6e-4,0.007 -0.0576,0.007 -0.0582,-1.1e-4 -0.0799,-0.003 -0.0482,-0.007 z m 3.75709,0 c 0.0317,-0.004 0.0793,-0.004 0.10583,1.8e-4 0.0265,0.004 5.7e-4,0.007 -0.0576,0.007 -0.0582,-1.1e-4 -0.0799,-0.003 -0.0482,-0.007 z m -3.28115,-0.0165 c 0.0121,-0.005 0.032,-0.005 0.0441,0 0.0121,0.005 0.002,0.009 -0.022,0.009 -0.0243,0 -0.0342,-0.004 -0.0221,-0.009 z m 2.8575,0 c 0.0121,-0.005 0.032,-0.005 0.0441,0 0.0121,0.005 0.002,0.009 -0.022,0.009 -0.0243,0 -0.0342,-0.004 -0.0221,-0.009 z m -3.84182,-1.21863 c -0.0608,-0.0661 -0.0608,-0.0661 0.005,-0.005 0.0616,0.0566 0.0743,0.0715 0.0608,0.0715 -0.003,0 -0.0327,-0.0298 -0.0662,-0.0662 z m 4.85164,0.004 c 0.0329,-0.034 0.0638,-0.0617 0.0687,-0.0617 0.005,0 -0.0181,0.0278 -0.051,0.0617 -0.0329,0.034 -0.0638,0.0617 -0.0687,0.0617 -0.005,0 0.0181,-0.0278 0.051,-0.0617 z m -2.57937,-0.18035 c 0.0317,-0.004 0.0793,-0.004 0.10583,1.8e-4 0.0265,0.004 5.7e-4,0.007 -0.0576,0.007 -0.0582,-1e-4 -0.0799,-0.003 -0.0482,-0.007 z m 0.22931,0 c 0.0317,-0.004 0.0793,-0.004 0.10583,1.8e-4 0.0265,0.004 5.7e-4,0.007 -0.0576,0.007 -0.0582,-1e-4 -0.0799,-0.003 -0.0482,-0.007 z m -0.45893,-0.0165 c 0.0121,-0.005 0.032,-0.005 0.0441,0 0.0121,0.005 0.002,0.009 -0.022,0.009 -0.0242,0 -0.0342,-0.004 -0.0221,-0.009 z m 0.74083,0 c 0.0121,-0.005 0.032,-0.005 0.0441,0 0.0121,0.005 0.002,0.009 -0.022,0.009 -0.0243,0 -0.0342,-0.004 -0.0221,-0.009 z m -2.2815,-0.76884 c -0.0336,-0.0397 -0.0336,-0.0397 0.006,-0.006 0.0373,0.0316 0.0477,0.0458 0.0336,0.0458 -0.003,0 -0.0212,-0.0179 -0.0397,-0.0397 z m -0.49623,-1.42434 c 0,-0.0437 0.003,-0.0615 0.008,-0.0397 0.004,0.0218 0.004,0.0575 0,0.0794 -0.004,0.0218 -0.008,0.004 -0.008,-0.0397 z m 4.85034,0.009 c 2e-4,-0.0388 0.004,-0.0526 0.008,-0.0307 0.004,0.0219 0.004,0.0537 -3.6e-4,0.0705 -0.004,0.0169 -0.008,-0.001 -0.008,-0.0399 z m -4.85069,-0.45861 c 1.9e-4,-0.0388 0.004,-0.0526 0.008,-0.0307 0.004,0.0219 0.004,0.0537 -3.5e-4,0.0705 -0.004,0.0169 -0.008,-0.001 -0.008,-0.0399 z m 4.85069,0 c 2e-4,-0.0388 0.004,-0.0526 0.008,-0.0307 0.004,0.0219 0.004,0.0537 -3.6e-4,0.0705 -0.004,0.0169 -0.008,-0.001 -0.008,-0.0399 z m -4.6224,-1.88736 c 3.6e-4,-0.0291 0.004,-0.0389 0.009,-0.0217 0.004,0.0172 0.004,0.041 -6.6e-4,0.0529 -0.005,0.0119 -0.008,-0.002 -0.008,-0.0312 z m 4.39209,0 c 3.6e-4,-0.0291 0.004,-0.0389 0.009,-0.0217 0.004,0.0172 0.004,0.041 -6.5e-4,0.0529 -0.005,0.0119 -0.008,-0.002 -0.008,-0.0312 z m -5.27403,-0.28223 c 3.6e-4,-0.0291 0.004,-0.0389 0.009,-0.0217 0.004,0.0172 0.004,0.041 -6.5e-4,0.0529 -0.005,0.0119 -0.008,-0.002 -0.008,-0.0312 z m 6.15597,0 c 3.6e-4,-0.0291 0.004,-0.0389 0.009,-0.0217 0.004,0.0172 0.004,0.041 -6.6e-4,0.0529 -0.005,0.0119 -0.008,-0.002 -0.008,-0.0312 z m -5.27403,-0.0529 c 3.6e-4,-0.0291 0.004,-0.0389 0.009,-0.0217 0.004,0.0172 0.004,0.041 -6.6e-4,0.0529 -0.005,0.0119 -0.008,-0.002 -0.008,-0.0312 z m 4.39209,-0.0176 c 3.6e-4,-0.0291 0.004,-0.0389 0.009,-0.0217 0.004,0.0172 0.004,0.041 -6.5e-4,0.0529 -0.005,0.0119 -0.008,-0.002 -0.008,-0.0312 z m -4.03393,-1.03188 c 0.0176,-0.0194 0.0359,-0.0353 0.0407,-0.0353 0.005,0 -0.006,0.0159 -0.0231,0.0353 -0.0176,0.0194 -0.0359,0.0353 -0.0408,0.0353 -0.005,0 0.006,-0.0159 0.0231,-0.0353 z m -0.34396,-0.8169 c 0,-0.003 0.0258,-0.0288 0.0573,-0.0573 0.0573,-0.0518 0.0573,-0.0518 0.006,0.006 -0.0483,0.0534 -0.0628,0.0654 -0.0628,0.0518 z m 4.3116,-0.0518 c -0.0518,-0.0573 -0.0518,-0.0573 0.006,-0.006 0.0315,0.0285 0.0573,0.0543 0.0573,0.0573 0,0.0136 -0.0146,0.002 -0.0628,-0.0518 z m -2.37552,-0.80182 c 0.0219,-0.004 0.0537,-0.004 0.0705,3.6e-4 0.0169,0.004 -10e-4,0.008 -0.0399,0.008 -0.0388,-2e-4 -0.0526,-0.004 -0.0307,-0.008 z m 0.44097,0 c 0.0219,-0.004 0.0537,-0.004 0.0706,3.6e-4 0.0169,0.004 -10e-4,0.008 -0.0399,0.008 -0.0388,-2e-4 -0.0526,-0.004 -0.0307,-0.008 z"
         style="fill:#98a2ac;stroke-width:0.0176389" />
      <path
         id="path965"
         d="m 104.4041,132.15647 c -0.2005,-0.10111 -0.20227,-0.38301 -0.003,-0.48357 0.0757,-0.0382 0.0757,-0.0382 -0.13547,-0.0441 -0.2892,-0.008 -0.38117,-0.0755 -0.38117,-0.27931 0,-0.20332 0.0922,-0.27122 0.37904,-0.27925 0.20902,-0.006 0.20902,-0.006 0.34714,0.0992 1.15565,0.87885 3.19518,0.87885 4.35083,0 0.13812,-0.10504 0.13812,-0.10504 0.34714,-0.0992 0.28688,0.008 0.37904,0.0759 0.37904,0.27925 0,0.20383 -0.092,0.27122 -0.38117,0.27931 -0.21114,0.006 -0.21114,0.006 -0.13547,0.0441 0.20218,0.10204 0.19745,0.38348 -0.008,0.48546 -0.26874,0.1333 -1.94242,-0.0628 -2.30164,-0.26965 -0.0748,-0.0431 -0.0748,-0.0431 -0.15226,2.4e-4 -0.27949,0.15622 -0.85232,0.25806 -1.62756,0.28936 -0.58795,0.0237 -0.5868,0.0238 -0.67727,-0.0218 z m 2.23117,-4.54481 c -0.24516,-0.12067 -0.42873,-0.2998 -0.54786,-0.5346 -0.0573,-0.11298 -0.0597,-0.10888 0.0945,-0.16355 0.15558,-0.0552 0.37531,-0.16224 0.51153,-0.24927 0.0926,-0.0592 0.0926,-0.0592 0.18521,0 0.13622,0.087 0.35595,0.19411 0.51153,0.24927 0.15418,0.0547 0.15181,0.0506 0.0945,0.16355 -0.11375,0.22419 -0.29848,0.40917 -0.52224,0.52297 -0.17352,0.0883 -0.17161,0.0882 -0.32714,0.0116 z"
         style="fill:#e54b3b;stroke-width:0.0176389" />
      <path
         id="path963"
         d="m 104.51943,124.09991 c 0.0176,-0.0194 0.0359,-0.0353 0.0407,-0.0353 0.005,0 -0.006,0.0159 -0.0231,0.0353 -0.0176,0.0194 -0.0359,0.0353 -0.0408,0.0353 -0.005,0 0.006,-0.0159 0.0231,-0.0353 z m 4.51388,-0.004 c -0.0336,-0.0397 -0.0336,-0.0397 0.006,-0.006 0.0218,0.0185 0.0397,0.0363 0.0397,0.0397 0,0.0141 -0.0142,0.004 -0.0458,-0.0336 z"
         style="fill:#687786;stroke-width:0.0176389" />
      <path
         id="path961"
         d="m 106.6846,131.81271 c 0.0558,-0.004 0.14707,-0.004 0.20285,0 0.0558,0.004 0.0101,0.006 -0.10142,0.006 -0.11157,0 -0.15721,-0.003 -0.10143,-0.006 z m -0.3348,-0.0168 c 0.0172,-0.004 0.041,-0.004 0.0529,6.6e-4 0.0119,0.005 -0.002,0.008 -0.0312,0.008 -0.0291,-3.6e-4 -0.0389,-0.004 -0.0217,-0.009 z m 0.82903,0 c 0.0172,-0.004 0.041,-0.004 0.0529,6.6e-4 0.0119,0.005 -0.002,0.008 -0.0312,0.008 -0.0291,-3.6e-4 -0.0389,-0.004 -0.0217,-0.009 z m -2.6872,-0.7242 c -0.0428,-0.0485 -0.0428,-0.0485 0.006,-0.006 0.0453,0.04 0.0566,0.0542 0.0428,0.0542 -0.003,0 -0.025,-0.0218 -0.0485,-0.0485 z m 4.56981,0.004 c 0.0228,-0.0242 0.0454,-0.0441 0.0502,-0.0441 0.005,0 -0.01,0.0198 -0.0326,0.0441 -0.0228,0.0242 -0.0454,0.0441 -0.0503,0.0441 -0.005,0 0.01,-0.0199 0.0326,-0.0441 z m -6.78488,-1.78229 c -0.006,-0.015 -0.007,-0.0312 -0.002,-0.036 0.005,-0.005 0.013,0.007 0.0182,0.0272 0.011,0.042 -0.001,0.0485 -0.0165,0.009 z m 9.00264,-0.009 c 0.006,-0.0239 0.0142,-0.0319 0.0186,-0.0186 0.004,0.0127 -6.8e-4,0.0315 -0.0109,0.0418 -0.0131,0.0131 -0.0154,0.006 -0.008,-0.0231 z m -2.05557,-0.94227 c 3.6e-4,-0.0291 0.004,-0.0389 0.009,-0.0217 0.004,0.0172 0.004,0.041 -6.6e-4,0.0529 -0.005,0.0119 -0.008,-0.002 -0.008,-0.0312 z m -4.88663,-0.009 c 0,-0.0242 0.004,-0.0342 0.009,-0.022 0.005,0.0121 0.005,0.032 0,0.0441 -0.005,0.0121 -0.009,0.002 -0.009,-0.0221 z"
         style="fill:#515b6c;stroke-width:0.0176389" />
      <path
         id="path959"
         d="m 106.26568,131.78737 c -1.41932,-0.1429 -2.42255,-1.03152 -2.75956,-2.4443 -0.0121,-0.0509 -0.0255,-0.0926 -0.0296,-0.0926 -0.004,0 -0.053,0.0227 -0.10848,0.0504 -0.34693,0.17342 -0.6944,0.19819 -0.95641,0.0682 -0.2041,-0.10128 -0.17539,-0.18635 0.26174,-0.77553 0.36644,-0.4939 0.59803,-0.90196 0.70333,-1.23928 0.0303,-0.097 0.11178,-0.35499 0.1811,-0.57327 0.11855,-0.37331 0.12704,-0.41101 0.14296,-0.635 0.0629,-0.88542 0.29719,-1.47151 0.80287,-2.0087 1.19784,-1.27245 3.36705,-1.27245 4.56489,0 0.50568,0.53719 0.73994,1.12328 0.80287,2.0087 0.0159,0.22399 0.0244,0.26169 0.14296,0.635 0.0693,0.21828 0.15081,0.47625 0.1811,0.57327 0.10531,0.33732 0.33689,0.74538 0.70333,1.23928 0.43713,0.58918 0.46584,0.67425 0.26174,0.77553 -0.26201,0.13001 -0.60948,0.10524 -0.95641,-0.0682 -0.0555,-0.0277 -0.10432,-0.0504 -0.10848,-0.0504 -0.004,0 -0.0175,0.0417 -0.0297,0.0926 -0.4162,1.74476 -1.81462,2.64422 -3.80025,2.4443 z m 0.89122,-1.02089 c 1.34294,-0.16686 2.06486,-1.0112 2.06534,-2.4156 1.8e-4,-0.53012 -0.10296,-0.99699 -0.28606,-1.29493 -0.0495,-0.0806 -0.052,-0.0923 -0.0349,-0.16757 0.31317,-1.37987 -0.11184,-2.33415 -1.07586,-2.41567 -0.30686,-0.0259 -0.43656,0.0187 -0.76588,0.26336 -0.2857,0.2123 -0.27242,0.21159 -0.49412,0.0262 -0.33186,-0.27754 -0.56929,-0.34535 -0.96069,-0.27438 -0.85364,0.1548 -1.21235,1.05194 -0.9429,2.35823 0.0262,0.12682 0.0262,0.12682 -0.026,0.21167 -0.39041,0.63471 -0.38486,1.87383 0.0118,2.62559 0.41081,0.77866 1.42758,1.21753 2.50935,1.08312 z"
         style="fill:#33485d;stroke-width:0.0176389" />
      <path
         id="path957"
         d="m 105.95942,126.53111 c -0.31137,-0.0547 -0.39309,-0.47225 -0.12872,-0.65771 0.10699,-0.075 0.29301,-0.0782 0.39695,-0.007 0.33504,0.23052 0.13155,0.73454 -0.26823,0.66436 z m 1.51285,0.003 c -0.32108,-0.0547 -0.40226,-0.47815 -0.12787,-0.66694 0.10394,-0.0715 0.28997,-0.0684 0.39695,0.007 0.32226,0.22606 0.11838,0.72634 -0.26908,0.66029 z"
         style="fill:#23303f;stroke-width:0.0176389" />
    </g>
  </g>
</svg>
